<svg width="88" height="32" viewBox="0 0 88 32" fill="none" xmlns="http://www.w3.org/2000/svg">
<path fill-rule="evenodd" clip-rule="evenodd" d="M31.8614 12.8645V27.9489C32.0149 29.2992 33.2977 32 37.2016 32H42.8179V28.9617H37.2016C36.4036 28.9617 34.8077 28.5197 34.8077 26.7519V12.8645H41.4367V9.5499H34.8077V4.01025H31.8614V9.5499H27.8101V12.8645H31.8614Z" fill="#22253B"/>
<path fill-rule="evenodd" clip-rule="evenodd" d="M76.2008 12.8645V27.9489C76.3542 29.2992 77.6371 32 81.5409 32H87.1573V28.9617H81.5409C80.743 28.9617 79.1471 28.5197 79.1471 26.7519V12.8645H85.776V9.5499H79.1471V4.01025H76.2008V9.5499H72.1494V12.8645H76.2008Z" fill="#22253B"/>
<path fill-rule="evenodd" clip-rule="evenodd" d="M0 0H3.75452L12.4288 15.1475L21.2736 0H25.1164L14.112 18.9018H14.1137V31.9997H10.3655V18.9021H10.3573L0 0Z" fill="#38BFF2"/>
<path fill-rule="evenodd" clip-rule="evenodd" d="M44.3398 0H48.0944L56.7686 15.1475L65.6134 0H69.4563L58.4518 18.9018H58.454V31.9997H54.7058V18.9021H54.6971L44.3398 0Z" fill="#F15525"/>
</svg>
